<svg xmlns="http://www.w3.org/2000/svg" viewBox="0 0 512 512" width="512" height="512">
  <defs>
    <linearGradient id="tlo" x1="0" y1="0" x2="1" y2="1">
      <stop offset="0" stop-color="#171208"/>
      <stop offset=".55" stop-color="#100D08"/>
      <stop offset="1" stop-color="#0B0A08"/>
    </linearGradient>
    <radialGradient id="blask" cx=".26" cy=".16" r=".92">
      <stop offset="0" stop-color="#6B4A1E" stop-opacity=".9"/>
      <stop offset=".58" stop-color="#1C2E4A" stop-opacity=".3"/>
      <stop offset="1" stop-color="#000" stop-opacity="0"/>
    </radialGradient>
    <linearGradient id="krawedz" x1="0" y1="0" x2=".4" y2="1">
      <stop offset="0" stop-color="#FFE8C4" stop-opacity=".32"/>
      <stop offset=".45" stop-color="#FFE8C4" stop-opacity=".05"/>
      <stop offset="1" stop-color="#FFE8C4" stop-opacity=".13"/>
    </linearGradient>
  </defs>

  <rect width="512" height="512" rx="112" fill="url(#tlo)"/>
  <rect width="512" height="512" rx="112" fill="url(#blask)"/>
  <!-- linijki księgi, ledwo widoczne pod znakiem -->
  <g stroke="#EEE2CD" stroke-opacity=".07" stroke-width="3">
    <path d="M56 132h400M56 200h400M56 268h400M56 336h400M56 404h400"/>
  </g>
  <rect x="2" y="2" width="508" height="508" rx="110" fill="none" stroke="url(#krawedz)" stroke-width="4"/>

  <g fill="none" stroke-linecap="round" stroke-linejoin="round">
    <path d="M256 132v244" stroke="#E0B06A" stroke-width="20"/>
    <path d="M176 388h160" stroke="#E0B06A" stroke-width="20"/>
    <path d="M120 176h272" stroke="#E0B06A" stroke-width="20"/>
    <circle cx="256" cy="176" r="17" fill="#100D08" stroke="#E0B06A" stroke-width="18"/>
    <!-- szalka lewa: strona Wn -->
    <path d="M120 176 66 290h108L120 176Z" stroke="#7FA5D6" stroke-width="18"/>
    <!-- szalka prawa: strona Ma -->
    <path d="M392 176l-54 114h108l-54-114Z" stroke="#D4795E" stroke-width="18"/>
  </g>
</svg>
